<svg  viewBox="0 0 300 300" fill="none" xmlns="http://www.w3.org/2000/svg">
<g id="avatar">
<path id="Vector" d="M150 300C67.1573 300 0 232.843 0 150C0 67.1573 67.1573 0 150 0C232.843 0 300 67.1573 300 150C300 232.843 232.843 300 150 300Z" fill="url(#paint0_linear)"/>
<mask id="mask0" mask-type="alpha" maskUnits="userSpaceOnUse" x="0" y="0" width="300" height="300">
<g id="mask0">
<path id="Vector_2" d="M150 300C67.1573 300 0 232.843 0 150C0 67.1573 67.1573 0 150 0C232.843 0 300 67.1573 300 150C300 232.843 232.843 300 150 300Z" fill="white"/>
</g>
</mask>
<g mask="url(#mask0)">
<g id="Group">
<path id="Vector_3" fill-rule="evenodd" clip-rule="evenodd" d="M181 174C181 174 181 174 181 186C181 202 204 209 204 209C204 209 177.5 229 150 229C122.5 229 96 209 96 209C96 209 119.181 202 119 186C118.819 170 118.94 160.602 118.819 133.188C104.487 114.611 105.407 102.143 113.244 93.3751C139.5 64 211 74 211 74C211 74 217.672 145.993 202.5 167C196 176 181 174 181 174Z" fill="url(#paint1_linear)"/>
<g id="Group_2" style="mix-blend-mode:multiply" opacity="0.6">
<path id="Vector_4" style="mix-blend-mode:multiply" opacity="0.6" fill-rule="evenodd" clip-rule="evenodd" d="M181 174C159 171.5 146 162 146 162C146 162 157 180.5 181 186V174Z" fill="url(#paint2_linear)"/>
</g>
<path id="Vector_5" d="M255 239.308C264.52 258.665 270 303.308 270 303.308H30C30 303.308 35.4824 258.66 45 239.308C54.5176 219.956 110.099 202.007 110.099 202.007C120.813 224.005 179.608 224.002 189.871 202C189.871 202 245.48 219.951 255 239.308Z" fill="url(#paint3_linear)"/>
<path id="Vector_6" fill-rule="evenodd" clip-rule="evenodd" d="M154 238C154 240.209 152.209 242 150 242C147.791 242 146 240.209 146 238C146 235.791 147.791 234 150 234C152.209 234 154 235.791 154 238ZM154 258C154 260.209 152.209 262 150 262C147.791 262 146 260.209 146 258C146 255.791 147.791 254 150 254C152.209 254 154 255.791 154 258ZM150 282C152.209 282 154 280.209 154 278C154 275.791 152.209 274 150 274C147.791 274 146 275.791 146 278C146 280.209 147.791 282 150 282Z" fill="white"/>
<path id="Vector_7" d="M131.155 103.209C127.975 100.477 124.111 98.6389 118.649 101.477C105.7 108.205 115.5 134 127 134C130.001 134 131.492 143.422 118.135 150.003C118.135 139.503 102.135 113.503 100.739 89.8309C84.6346 83.8362 88.6346 59.8492 99.6922 59.8492C97.9236 37.8577 133.135 26.5034 146.769 39.1194C160.635 22.5034 195.635 31.0034 197.748 45.4183C221.815 32.5706 237.635 69.5034 215.1 83.8362C205.827 89.7338 184.135 91.9812 152.822 91.9812C148.096 91.9812 145.448 93.155 146.769 99C149.328 110.326 143.387 117.46 131.155 103.209Z" fill="url(#paint4_linear)"/>
</g>
</g>
</g>
<defs>
<linearGradient id="paint0_linear" x1="-150" y1="450" x2="-148" y2="-30" gradientUnits="userSpaceOnUse">
<stop stop-color="#845EC2"/>
<stop offset="0.536667" stop-color="#845EC2"/>
<stop offset="1" stop-color="#009EFA"/>
</linearGradient>
<linearGradient id="paint1_linear" x1="96" y1="71.4603" x2="96" y2="229" gradientUnits="userSpaceOnUse">
<stop stop-color="#E6864E"/>
<stop offset="1" stop-color="#EB965E"/>
</linearGradient>
<linearGradient id="paint2_linear" x1="158.6" y1="162.356" x2="152.482" y2="185.567" gradientUnits="userSpaceOnUse">
<stop stop-color="#E07A3F"/>
<stop offset="1" stop-color="#EB9154"/>
</linearGradient>
<linearGradient id="paint3_linear" x1="30" y1="202" x2="30" y2="303.308" gradientUnits="userSpaceOnUse">
<stop stop-color="#5814FF"/>
<stop offset="1" stop-color="#162447"/>
</linearGradient>
<linearGradient id="paint4_linear" x1="90" y1="30" x2="90" y2="150.003" gradientUnits="userSpaceOnUse">
<stop stop-color="#1D0024"/>
<stop offset="1" stop-color="#100014"/>
</linearGradient>
</defs>
</svg>
