<svg  viewBox="0 0 792 1020" fill="none" xmlns="http://www.w3.org/2000/svg">
<path d="M299.771 100.863C352.169 45.9414 439.831 45.9413 492.229 100.863L650.343 266.588C670.022 287.216 682.553 313.62 686.087 341.909L727.189 670.895C734.224 727.207 704.754 781.779 653.809 806.781L454.594 904.545C417.637 922.682 374.363 922.682 337.406 904.545L138.191 806.781C87.2456 781.779 57.7756 727.207 64.8109 670.895L105.913 341.909C109.447 313.62 121.978 287.216 141.657 266.588L299.771 100.863Z" fill="url(#paint0_linear)"/>
<rect x="362.95" y="189.675" width="360.546" height="212.224" rx="7" fill="#C4C4C4"/>
<ellipse cx="616.534" cy="290.481" rx="60.091" ry="66.3199" fill="#00ECC2"/>
<path d="M676.625 290.481C676.625 304.961 672.331 319.044 664.399 330.578C656.466 342.112 645.331 350.464 632.695 354.358C620.058 358.252 606.613 357.475 594.414 352.144C582.215 346.814 571.932 337.224 565.135 324.838C558.338 312.452 555.401 297.952 556.772 283.551C558.143 269.15 563.747 255.64 572.728 245.084C581.709 234.528 593.574 227.506 606.51 225.09C619.447 222.675 632.744 224.999 644.372 231.707L616.534 290.481H676.625Z" fill="#162447"/>
<rect width="96.1457" height="8.16245" transform="translate(395.399 281.911)" fill="#162447"/>
<rect width="96.1457" height="8.16245" transform="translate(395.399 301.5)" fill="#162447"/>
<rect width="96.1457" height="8.16245" transform="translate(395.399 262.321)" fill="#162447"/>
<rect width="81.354" height="8.16245" transform="translate(395.399 242.731)" fill="#162447"/>
<rect width="96.1457" height="8.16245" transform="translate(395.399 321.09)" fill="#162447"/>
<rect width="66.5624" height="8.16245" transform="translate(395.399 340.68)" fill="#162447"/>
<rect x="508.37" y="623.407" width="96.1457" height="119.376" fill="#FE7659"/>
<rect width="76.155" height="6.388" transform="translate(518.842 671.716)" fill="#162447"/>
<rect width="76.155" height="6.388" transform="translate(518.842 687.048)" fill="#162447"/>
<rect width="76.155" height="6.388" transform="translate(518.842 656.385)" fill="#162447"/>
<rect width="64.4388" height="6.388" transform="translate(518.842 641.054)" fill="#162447"/>
<rect width="76.155" height="6.388" transform="translate(518.842 702.379)" fill="#162447"/>
<rect width="52.7227" height="6.388" transform="translate(518.842 717.71)" fill="#162447"/>
<rect x="336.51" y="722.887" width="12.0182" height="159.168" transform="rotate(-180 336.51 722.887)" fill="#00ECC2"/>
<rect x="310.07" y="722.887" width="12.0182" height="145.904" transform="rotate(-180 310.07 722.887)" fill="#00ECC2"/>
<rect x="283.63" y="722.887" width="12.0182" height="119.376" transform="rotate(-180 283.63 722.887)" fill="#FCAE62"/>
<rect x="257.19" y="722.887" width="12.0182" height="139.272" transform="rotate(-180 257.19 722.887)" fill="#FCAE62"/>
<rect x="230.75" y="722.887" width="12.0182" height="112.744" transform="rotate(-180 230.75 722.887)" fill="#FE7659"/>
<rect x="204.31" y="722.887" width="12.0182" height="159.168" transform="rotate(-180 204.31 722.887)" fill="#FE7659"/>
<rect x="177.87" y="722.887" width="12.0182" height="86.2159" transform="rotate(-180 177.87 722.887)" fill="#00ECC2"/>
<rect x="151.429" y="722.887" width="12.0182" height="99.4798" transform="rotate(-180 151.429 722.887)" fill="#00ECC2"/>
<rect x="336.51" y="749.415" width="204.31" height="9.28479" transform="rotate(-180 336.51 749.415)" fill="#162447"/>
<path d="M249.979 489.072C291.058 489.072 324.088 453.012 324.088 408.878C324.088 364.744 291.058 328.684 249.979 328.684C208.9 328.684 175.87 364.744 175.87 408.878C175.87 453.012 208.9 489.072 249.979 489.072Z" fill="#162447" stroke="black" stroke-width="4"/>
<path d="M318.785 430.534C314.518 445.291 306.312 458.345 295.204 468.044C284.095 477.743 270.584 483.653 256.379 485.026C242.173 486.398 227.911 483.172 215.396 475.755C202.882 468.338 192.676 457.064 186.07 443.357L249.979 407.14L318.785 430.534Z" fill="#FCAE62"/>
<path d="M177.87 409.921C177.87 396.461 181.074 383.229 187.172 371.506C193.27 359.782 202.055 349.964 212.678 343.001C223.301 336.039 235.401 332.168 247.808 331.762C260.214 331.357 272.508 334.432 283.498 340.688L249.979 409.921H177.87Z" fill="#FCAE62"/>
<rect x="519.187" y="494.746" width="144.219" height="13.264" fill="#162447"/>
<rect x="519.187" y="465.566" width="168.255" height="13.264" fill="#162447"/>
<defs>
<linearGradient id="paint0_linear" x1="-253.584" y1="1282.63" x2="808.382" y2="60.8706" gradientUnits="userSpaceOnUse">
<stop offset="0.0513" stop-color="#162447"/>
<stop offset="1" stop-color="#08003c" stop-opacity="0"/>
</linearGradient>
</defs>
</svg>
