<svg width="32" height="32" viewBox="0 0 32 32" fill="none" xmlns="http://www.w3.org/2000/svg">
<path d="M0 1C0 0.447715 0.447715 0 1 0H14.5234C15.0757 0 15.5234 0.447715 15.5234 1V14.5966C15.5234 15.1489 15.0757 15.5966 14.5234 15.5966H1C0.447715 15.5966 0 15.1489 0 14.5966V1Z" fill="#845EC2"/>
<path d="M0 17.4034C0 16.8511 0.447715 16.4034 1 16.4034H14.5234C15.0757 16.4034 15.5234 16.8511 15.5234 17.4034V31C15.5234 31.5523 15.0757 32 14.5234 32H1C0.447715 32 0 31.5523 0 31V17.4034Z" fill="#009EFA"/>
<path d="M16.4766 7.99159C16.4766 7.43931 16.9243 6.99159 17.4766 6.99159H31C31.5523 6.99159 32 7.43931 32 7.99159V21.5882C32 22.1405 31.5523 22.5882 31 22.5882H17.4766C16.9243 22.5882 16.4766 22.1405 16.4766 21.5882V7.99159Z" fill="#7ECD23"/>
<rect x="1.90637" y="6.45378" width="11.8468" height="2.82353" fill="#A3A1A1"/>
<rect x="1.90637" y="22.5882" width="11.8468" height="2.82353" fill="#A3A1A1"/>
<rect x="6.39999" y="29.8487" width="11.6975" height="2.85957" transform="rotate(-90 6.39999 29.8487)" fill="#A3A1A1"/>
<rect x="18.383" y="15.5966" width="11.8468" height="2.82353" fill="#A3A1A1"/>
<rect x="18.383" y="11.9664" width="11.8468" height="2.82353" fill="#A3A1A1"/>
</svg>
